<svg width="18" height="18" viewBox="0 0 18 18" fill="none" xmlns="http://www.w3.org/2000/svg">
<path fill-rule="evenodd" clip-rule="evenodd" d="M2.883 2.22645C1.7857 2.22645 0.896153 3.11606 0.896153 4.21346V15.1168C0.896153 16.2142 1.7857 17.1038 2.883 17.1038H13.7805C14.8778 17.1038 15.7674 16.2142 15.7674 15.1168V9.66511C15.7674 9.41762 15.968 9.21699 16.2154 9.21699C16.4629 9.21699 16.6635 9.41762 16.6635 9.66511V15.1168C16.6635 16.7091 15.3728 18 13.7805 18H2.883C1.29076 18 0 16.7091 0 15.1168V4.21346C0 2.62109 1.29076 1.33022 2.883 1.33022H8.33176C8.57923 1.33022 8.77984 1.53084 8.77984 1.77833C8.77984 2.02582 8.57923 2.22645 8.33176 2.22645H2.883Z" fill="#8F6AFE"/>
<path fill-rule="evenodd" clip-rule="evenodd" d="M15.3719 1.47412C15.6908 1.15507 16.208 1.15507 16.5269 1.47412C16.8457 1.79299 16.8457 2.30985 16.5269 2.62872L8.97755 10.181C8.87709 10.2815 8.75213 10.3541 8.61503 10.3915C8.00559 10.5578 7.44643 9.99813 7.61259 9.38865C7.64996 9.25155 7.72249 9.1265 7.82295 9.02599L15.3719 1.47412ZM17.7376 1.41759C18.0875 1.76764 18.0875 2.33519 17.7376 2.68524L9.45782 10.9682C9.34756 11.0785 9.21043 11.1581 9.06 11.1992L7.47243 11.6323C6.80355 11.8148 6.1898 11.2008 6.37222 10.5317L6.8052 8.94351C6.84623 8.79301 6.9258 8.65584 7.03606 8.54553L15.3158 0.26254C15.6657 -0.0875133 16.233 -0.0875133 16.583 0.26254L17.7376 1.41759Z" fill="#8F6AFE"/>
</svg>
