<svg width="23" height="23" viewBox="0 0 23 23" fill="none" xmlns="http://www.w3.org/2000/svg">
<path fill-rule="evenodd" clip-rule="evenodd" d="M0 10.9125C0 4.6422 4.91254 0 11.25 0C17.5875 0 22.5 4.6422 22.5 10.9125C22.5 17.1828 17.5875 21.825 11.25 21.825C10.1117 21.825 9.01958 21.6747 7.99346 21.3926C7.794 21.3377 7.58189 21.3532 7.3926 21.4367L5.15963 22.4224C4.57553 22.6802 3.91619 22.2649 3.89662 21.6266L3.83535 19.6254C3.82781 19.3788 3.71689 19.1484 3.53313 18.9839C1.34415 17.0264 0 14.1923 0 10.9125ZM7.79911 8.86086L4.49442 14.1038C4.17728 14.607 4.79576 15.174 5.26955 14.8144L8.81933 12.1204C9.05945 11.9381 9.39128 11.9372 9.63241 12.118L12.2609 14.0894C13.0496 14.6809 14.1752 14.4732 14.7009 13.6392L18.0056 8.39619C18.3227 7.89302 17.7042 7.32602 17.2304 7.68557L13.6807 10.3796C13.4405 10.5619 13.1087 10.5628 12.8676 10.3819L10.2392 8.41063C9.45045 7.81911 8.32478 8.02678 7.79911 8.86086Z" fill="#8F6AFE"/>
</svg>
