<svg width="25" height="25" viewBox="0 0 25 25" fill="none" xmlns="http://www.w3.org/2000/svg">
<path fill-rule="evenodd" clip-rule="evenodd" d="M25 12.5C25 19.4036 19.4036 25 12.5 25C5.59644 25 0 19.4036 0 12.5C0 5.59644 5.59644 0 12.5 0C19.4036 0 25 5.59644 25 12.5ZM12.9479 9.22806C11.7321 9.73376 9.3022 10.7804 5.6582 12.3681C5.06647 12.6034 4.7565 12.8336 4.72828 13.0587C4.68059 13.4391 5.15697 13.5889 5.80568 13.7929C5.89392 13.8206 5.98535 13.8494 6.07908 13.8798C6.71731 14.0873 7.57584 14.33 8.02215 14.3396C8.427 14.3484 8.87886 14.1815 9.37773 13.8389C12.7824 11.5406 14.54 10.379 14.6503 10.3539C14.7281 10.3363 14.836 10.3141 14.9091 10.379C14.9822 10.444 14.975 10.567 14.9673 10.6C14.9201 10.8012 13.0501 12.5397 12.0824 13.4394C11.7807 13.7198 11.5667 13.9188 11.523 13.9642C11.425 14.066 11.3251 14.1623 11.2291 14.2548C10.6362 14.8264 10.1916 15.255 11.2537 15.955C11.7642 16.2914 12.1726 16.5695 12.5801 16.847C13.0251 17.1501 13.469 17.4524 14.0433 17.8288C14.1896 17.9248 14.3294 18.0244 14.4655 18.1214C14.9834 18.4906 15.4487 18.8223 16.0235 18.7694C16.3575 18.7387 16.7025 18.4246 16.8778 17.4879C17.2919 15.2741 18.1058 10.4776 18.294 8.50103C18.3104 8.32786 18.2897 8.10623 18.2731 8.00894C18.2564 7.91166 18.2216 7.77304 18.0951 7.67043C17.9454 7.5489 17.7142 7.52328 17.6108 7.5251C17.1406 7.53338 16.4193 7.7842 12.9479 9.22806Z" fill="#8F6AFE"/>
</svg>
