<svg width="23" height="22" viewBox="0 0 23 22" fill="none" xmlns="http://www.w3.org/2000/svg">
<path d="M11.2972 0C5.12201 0 0.0965322 4.8404 0.0943548 10.7891C0.0929032 12.6915 0.609677 14.5481 1.58952 16.1833L0 21.7742L5.93927 20.274C7.59137 21.1382 9.42835 21.5889 11.2928 21.5877H11.2972C17.4723 21.5877 22.4978 16.7465 22.5 10.7978C22.5014 7.91637 21.3373 5.20403 19.2215 3.16524C17.1065 1.12573 14.294 0.000725807 11.2972 0ZM16.4047 13.0478C16.1245 12.9135 14.7484 12.261 14.4915 12.1703C14.2352 12.081 14.0487 12.0346 13.8622 12.3046C13.6764 12.5746 13.1393 13.1821 12.9767 13.3614C12.8127 13.5414 12.6494 13.5631 12.3692 13.4289C12.089 13.2939 11.1869 13.0094 10.1185 12.0905C9.28597 11.3763 8.72419 10.4937 8.56089 10.223C8.39758 9.95371 8.54347 9.80782 8.68355 9.67355C8.80911 9.55379 8.96371 9.35927 9.10306 9.20177C9.24242 9.04427 9.28887 8.93177 9.38323 8.75177C9.47613 8.5725 9.42968 8.41428 9.35927 8.28C9.28887 8.14427 8.73 6.8175 8.49556 6.27823C8.26911 5.75274 8.03831 5.82315 7.86629 5.81444C7.70298 5.80718 7.51718 5.805 7.32919 5.805C7.14411 5.805 6.84 5.8725 6.58306 6.1425C6.32685 6.4125 5.60323 7.06427 5.60323 8.39105C5.60323 9.71855 6.60629 11.0003 6.74637 11.1803C6.88645 11.3596 8.72056 14.0835 11.5287 15.2521C12.1965 15.5286 12.7176 15.6948 13.1248 15.8197C13.7954 16.0251 14.4058 15.9953 14.8877 15.9264C15.4248 15.8487 16.544 15.2746 16.7763 14.6453C17.01 14.016 17.01 13.476 16.9403 13.3635C16.8721 13.251 16.6848 13.1835 16.4047 13.0478Z" fill="#8F6AFE"/>
<path d="M16.362 13.0436C16.0818 12.9093 14.7057 12.2568 14.4488 12.1661C14.1926 12.0768 14.006 12.0304 13.8195 12.3004C13.6337 12.5704 13.0966 13.1779 12.934 13.3572C12.77 13.5372 12.6067 13.5589 12.3265 13.4247C12.0464 13.2897 11.1442 13.0051 10.0758 12.0863C9.24329 11.3721 8.68151 10.4895 8.51821 10.2188C8.3549 9.94949 8.50079 9.8036 8.64087 9.66933C8.76643 9.54957 8.92103 9.35506 9.06039 9.19756C9.19974 9.04006 9.24619 8.92755 9.34055 8.74755C9.43345 8.56828 9.387 8.41006 9.3166 8.27578C9.24619 8.14006 8.68732 6.81328 8.45289 6.27401C8.22643 5.74852 7.99563 5.81893 7.82361 5.81022C7.66031 5.80296 7.4745 5.80078 7.28651 5.80078C7.10143 5.80078 6.79732 5.86828 6.54039 6.13828C6.28418 6.40828 5.56055 7.06006 5.56055 8.38683C5.56055 9.71433 6.56361 10.9961 6.70369 11.1761C6.84377 11.3554 8.67789 14.0793 11.486 15.2479C12.1538 15.5244 12.6749 15.6906 13.0821 15.8155C13.7527 16.0209 14.3631 15.9911 14.8451 15.9222C15.3822 15.8445 16.5014 15.2704 16.7336 14.6411C16.9673 14.0118 16.9673 13.4718 16.8976 13.3593C16.8294 13.2468 16.6422 13.1793 16.362 13.0436Z" fill="white"/>
</svg>
