<svg width="33" height="33" viewBox="0 0 33 33" fill="none" xmlns="http://www.w3.org/2000/svg">
<path d="M1.18518 16.4914C1.18518 13.0588 1.18518 11.3425 1.96398 9.91966C2.74278 8.49686 4.16561 7.61381 7.01123 5.84774L10.0112 3.98585C13.0193 2.11898 14.5233 1.18555 16.1852 1.18555C17.847 1.18555 19.3511 2.11898 22.3592 3.98585L25.3592 5.84773C28.2048 7.61381 29.6276 8.49686 30.4064 9.91966C31.1852 11.3425 31.1852 13.0588 31.1852 16.4914V18.773C31.1852 24.6242 31.1852 27.55 29.4278 29.3677C27.6705 31.1855 24.842 31.1855 19.1852 31.1855H13.1852C7.52832 31.1855 4.69991 31.1855 2.94254 29.3677C1.18518 27.55 1.18518 24.6242 1.18518 18.773V16.4914Z" stroke="white" stroke-width="2.37037"/>
<path d="M15.6283 14.5158L15.6283 25.627" stroke="white" stroke-width="2.37037" stroke-linecap="round"/>
<path d="M15.6283 11.1834L15.6283 10.0723" stroke="white" stroke-width="2.37037" stroke-linecap="round"/>
</svg>
