<svg width="32" height="32" viewBox="0 0 32 32" fill="none" xmlns="http://www.w3.org/2000/svg">
<path d="M15.5333 30.5332C7.26241 30.5332 0.53334 23.8041 0.53334 15.5332C0.53334 7.26227 7.26241 0.533203 15.5333 0.533203C23.8043 0.533203 30.5333 7.26227 30.5333 15.5332C30.5333 23.8041 23.8043 30.5332 15.5333 30.5332ZM15.5333 1.7608C7.93881 1.7608 1.76094 7.93868 1.76094 15.5332C1.76094 23.1277 7.93881 29.3056 15.5333 29.3056C23.1272 29.3056 29.3057 23.1277 29.3057 15.5332C29.3057 7.93868 23.1272 1.7608 15.5333 1.7608Z" fill="white" stroke="white" stroke-width="1.06667"/>
<path d="M17.1694 14.6207H13.8966C13.3252 14.6207 12.8605 14.156 12.8605 13.5846V11.0453C12.8605 10.4739 13.3252 10.0092 13.8966 10.0092H17.1694C17.7409 10.0092 18.2055 10.4739 18.2055 11.0453C18.2055 11.3841 18.4799 11.6591 18.8193 11.6591C19.1587 11.6591 19.4331 11.3841 19.4331 11.0453C19.4331 9.79745 18.4179 8.78162 17.1694 8.78162H16.1468V7.35208C16.1468 7.01326 15.8718 6.73828 15.533 6.73828C15.1942 6.73828 14.9192 7.01326 14.9192 7.35208V8.78162H13.8966C12.6482 8.78162 11.6329 9.79684 11.6329 11.0453V13.5846C11.6329 14.8324 12.6482 15.8483 13.8966 15.8483H17.1694C17.7409 15.8483 18.2055 16.3129 18.2055 16.8844V19.4236C18.2055 19.9951 17.7409 20.4597 17.1694 20.4597H13.8966C13.3252 20.4597 12.8605 19.9951 12.8605 19.4236C12.8605 19.0848 12.5856 18.8099 12.2467 18.8099C11.9079 18.8099 11.6329 19.0848 11.6329 19.4236C11.6329 20.6715 12.6482 21.6873 13.8966 21.6873H14.9192V23.2967C14.9192 23.6355 15.1942 23.9105 15.533 23.9105C15.8718 23.9105 16.1468 23.6355 16.1468 23.2967V21.6873H17.1694C18.4173 21.6873 19.4331 20.6721 19.4331 19.4236V16.8838C19.4331 15.6359 18.4173 14.6207 17.1694 14.6207Z" fill="white" stroke="white" stroke-width="1.06667"/>
</svg>
