<svg width="33" height="33" viewBox="0 0 33 33" fill="none" xmlns="http://www.w3.org/2000/svg">
<path d="M18.8078 24.548H13.4878C13.0238 24.548 12.6478 24.172 12.6478 23.708V20.488C12.6478 20.0241 12.2717 19.648 11.8078 19.648H8.58776C8.12384 19.648 7.74776 19.272 7.74776 18.808V13.488C7.74776 13.0241 8.12384 12.648 8.58776 12.648H11.8078C12.2717 12.648 12.6478 12.272 12.6478 11.808V8.58805C12.6478 8.12413 13.0238 7.74805 13.4878 7.74805H18.8078C19.2717 7.74805 19.6478 8.12413 19.6478 8.58805V11.808C19.6478 12.272 20.0238 12.648 20.4878 12.648H23.7078C24.1717 12.648 24.5478 13.0241 24.5478 13.488V18.808C24.5478 19.272 24.1717 19.648 23.7078 19.648H20.4878C20.0238 19.648 19.6478 20.0241 19.6478 20.488V23.708C19.6478 24.172 19.2717 24.548 18.8078 24.548Z" stroke="white" stroke-width="2.2963"/>
<path d="M16.1481 31.1484C24.4323 31.1484 31.1481 24.4326 31.1481 16.1484C31.1481 7.86416 24.4323 1.14844 16.1481 1.14844C7.86387 1.14844 1.14815 7.86416 1.14815 16.1484C1.14815 24.4326 7.86387 31.1484 16.1481 31.1484Z" stroke="white" stroke-width="2.2963" stroke-linecap="round" stroke-linejoin="round"/>
</svg>
